<svg xmlns="http://www.w3.org/2000/svg" xmlns:xlink="http://www.w3.org/1999/xlink" width="464.982" height="352.974" viewBox="0 0 464.982 352.974">
  <defs>
    <linearGradient id="linear-gradient" y1="0.5" x2="1" y2="0.5" gradientUnits="objectBoundingBox">
      <stop offset="0" stop-color="#31027a"/>
      <stop offset="1" stop-color="#ab51db"/>
    </linearGradient>
    <linearGradient id="linear-gradient-2" x1="0.011" y1="0.916" x2="1.083" y2="0.133" gradientUnits="objectBoundingBox">
      <stop offset="0" stop-color="#60a90d"/>
      <stop offset="1" stop-color="#ffe548"/>
    </linearGradient>
    <linearGradient id="linear-gradient-4" x1="0.011" y1="0.916" x2="1.083" y2="0.133" xlink:href="#linear-gradient-2"/>
  </defs>
  <g id="Grupo_53825" data-name="Grupo 53825" transform="translate(-1090.765 -1098.249)">
    <g id="Grupo_53824" data-name="Grupo 53824" transform="translate(1121.129 1098.249)">
      <g id="Grupo_53755" data-name="Grupo 53755" transform="translate(0 313.615)">
        <g id="Grupo_53754" data-name="Grupo 53754">
          <ellipse id="Elipse_4052" data-name="Elipse 4052" cx="198.013" cy="17.751" rx="198.013" ry="17.751" fill="#c6af76"/>
        </g>
      </g>
      <g id="Grupo_53772" data-name="Grupo 53772" transform="translate(33.137)">
        <rect id="Rectángulo_5141" data-name="Rectángulo 5141" width="238.304" height="334.509" rx="11.974" fill="#a3b9cb"/>
        <rect id="Rectángulo_5142" data-name="Rectángulo 5142" width="197.636" height="51.03" transform="translate(21.458 27.514)" fill="#756489"/>
        <path id="Trazado_100469" data-name="Trazado 100469" d="M1178.943,1132.453h192.392v-7.346H1173.7v51.03h5.243Z" transform="translate(-1152.242 -1097.593)" fill="#3cb4c5" opacity="0.5" style="mix-blend-mode: multiply;isolation: isolate"/>
        <rect id="Rectángulo_5143" data-name="Rectángulo 5143" width="56.709" height="18.384" rx="0.921" transform="translate(21.458 93.1)" fill="#ffc571"/>
        <path id="Rectángulo_5144" data-name="Rectángulo 5144" d="M.921,0H55.788a.92.92,0,0,1,.92.92V17.463a.921.921,0,0,1-.921.921H.92a.92.92,0,0,1-.92-.92V.921A.921.921,0,0,1,.921,0Z" transform="translate(91.921 93.1)" fill="#ffc571"/>
        <rect id="Rectángulo_5145" data-name="Rectángulo 5145" width="43.886" height="41.214" rx="2.064" transform="translate(21.458 126.041)" fill="#8d4bcb"/>
        <rect id="Rectángulo_5146" data-name="Rectángulo 5146" width="43.886" height="41.214" rx="2.064" transform="translate(72.708 126.041)" fill="#016589"/>
        <rect id="Rectángulo_5147" data-name="Rectángulo 5147" width="43.886" height="41.214" rx="2.064" transform="translate(123.957 126.041)" fill="#016589"/>
        <rect id="Rectángulo_5148" data-name="Rectángulo 5148" width="43.886" height="41.214" rx="2.064" transform="translate(21.458 176.85)" fill="#8d4bcb"/>
        <rect id="Rectángulo_5149" data-name="Rectángulo 5149" width="43.886" height="41.214" rx="2.064" transform="translate(72.708 176.85)" fill="#016589"/>
        <rect id="Rectángulo_5150" data-name="Rectángulo 5150" width="43.886" height="41.214" rx="2.064" transform="translate(123.957 176.85)" fill="#016589"/>
        <path id="Trazado_100470" data-name="Trazado 100470" d="M1358.732,1221.286h-26a8.957,8.957,0,0,0-8.941,8.972v74.08a8.956,8.956,0,0,0,8.941,8.972h26a8.956,8.956,0,0,0,8.941-8.972v-74.08A8.957,8.957,0,0,0,1358.732,1221.286Z" transform="translate(-1148.579 -1095.246)" fill="#016589"/>
        <rect id="Rectángulo_5151" data-name="Rectángulo 5151" width="43.886" height="41.214" rx="2.064" transform="translate(21.458 227.658)" fill="#8d4bcb"/>
        <rect id="Rectángulo_5152" data-name="Rectángulo 5152" width="43.886" height="41.214" rx="2.064" transform="translate(72.708 227.658)" fill="#016589"/>
        <rect id="Rectángulo_5153" data-name="Rectángulo 5153" width="43.886" height="41.214" rx="2.064" transform="translate(123.957 227.658)" fill="#016589"/>
        <rect id="Rectángulo_5154" data-name="Rectángulo 5154" width="43.886" height="41.214" rx="2.064" transform="translate(175.207 227.658)" fill="#016589"/>
        <rect id="Rectángulo_5155" data-name="Rectángulo 5155" width="43.886" height="41.213" rx="2.064" transform="translate(21.458 278.467)" fill="#8d4bcb"/>
        <rect id="Rectángulo_5156" data-name="Rectángulo 5156" width="43.886" height="41.213" rx="2.064" transform="translate(72.708 278.467)" fill="#016589"/>
        <rect id="Rectángulo_5157" data-name="Rectángulo 5157" width="43.886" height="41.213" rx="2.064" transform="translate(123.957 278.467)" fill="#016589"/>
        <rect id="Rectángulo_5158" data-name="Rectángulo 5158" width="43.886" height="41.213" rx="2.064" transform="translate(175.207 278.467)" fill="#8d4bcb"/>
        <g id="Grupo_53756" data-name="Grupo 53756" transform="translate(36.235 237.436)">
          <path id="Trazado_100471" data-name="Trazado 100471" d="M1202.8,1330.028v2.084l-10.132,21.266h-3.258l10.1-20.655v-.072h-11.385v-2.623Z" transform="translate(-1188.125 -1330.028)" fill="#fff"/>
        </g>
        <g id="Grupo_53757" data-name="Grupo 53757" transform="translate(86.968 237.041)">
          <path id="Trazado_100472" data-name="Trazado 100472" d="M1237.649,1347.46c0-2.945,1.754-5.029,4.618-6.251l-.036-.108a5.783,5.783,0,0,1-3.688-5.244c0-3.7,3.115-6.215,7.2-6.215,4.51,0,6.766,2.838,6.766,5.748,0,1.975-.966,4.095-3.83,5.46v.108c2.9,1.149,4.69,3.2,4.69,6.035,0,4.06-3.473,6.79-7.912,6.79C1240.584,1353.782,1237.649,1350.873,1237.649,1347.46Zm12.53-.143c0-2.838-1.97-4.2-5.12-5.1-2.721.79-4.189,2.585-4.189,4.813a4.311,4.311,0,0,0,4.654,4.455C1248.353,1351.483,1250.18,1349.723,1250.18,1347.316Zm-8.664-11.675c0,2.336,1.755,3.593,4.439,4.311,2.006-.682,3.544-2.12,3.544-4.238a3.623,3.623,0,0,0-3.938-3.809A3.707,3.707,0,0,0,1241.515,1335.641Z" transform="translate(-1237.649 -1329.642)" fill="#fff"/>
        </g>
        <g id="Grupo_53758" data-name="Grupo 53758" transform="translate(86.932 287.225)">
          <path id="Trazado_100473" data-name="Trazado 100473" d="M1253.4,1390.45c0,7.938-2.935,12.321-8.09,12.321-4.547,0-7.626-4.275-7.7-12,0-7.831,3.365-12.141,8.091-12.141C1250.61,1378.631,1253.4,1383.014,1253.4,1390.45Zm-12.637.359c0,6.071,1.862,9.52,4.726,9.52,3.222,0,4.761-3.772,4.761-9.735,0-5.748-1.468-9.52-4.725-9.52C1242.769,1381.073,1240.764,1384.45,1240.764,1390.808Z" transform="translate(-1237.614 -1378.631)" fill="#fff"/>
        </g>
        <g id="Grupo_53759" data-name="Grupo 53759" transform="translate(139.097 237.041)">
          <path id="Trazado_100474" data-name="Trazado 100474" d="M1290.5,1351.16a13.117,13.117,0,0,0,2.542-.108,8.758,8.758,0,0,0,4.869-2.264,10.254,10.254,0,0,0,3.078-6.214h-.106a6.821,6.821,0,0,1-5.478,2.515c-4.189,0-6.874-3.161-6.874-7.149a7.993,7.993,0,0,1,7.947-8.3c4.761,0,7.7,3.879,7.7,9.843,0,5.137-1.719,8.73-4.009,10.957a11.617,11.617,0,0,1-6.766,3.124,14.586,14.586,0,0,1-2.9.18Zm1.146-13.435c0,2.91,1.755,4.957,4.475,4.957a5.2,5.2,0,0,0,4.582-2.442,2.091,2.091,0,0,0,.286-1.151c0-3.987-1.467-7.04-4.76-7.04C1293.547,1332.049,1291.65,1334.42,1291.65,1337.725Z" transform="translate(-1288.536 -1329.642)" fill="#fff"/>
        </g>
        <g id="Grupo_53760" data-name="Grupo 53760" transform="translate(34.732 185.633)">
          <path id="Trazado_100475" data-name="Trazado 100475" d="M1197.47,1302.808v-6.358h-10.812v-2.083l10.381-14.908h3.4v14.513h3.257v2.478h-3.257v6.358Zm0-8.836v-7.8q0-1.832.108-3.663h-.108c-.716,1.365-1.289,2.371-1.933,3.448l-5.693,7.939v.072Z" transform="translate(-1186.658 -1279.459)" fill="#fff"/>
        </g>
        <g id="Grupo_53761" data-name="Grupo 53761" transform="translate(87.147 185.633)">
          <path id="Trazado_100476" data-name="Trazado 100476" d="M1251.822,1282.117h-8.879l-.894,6a12.4,12.4,0,0,1,1.9-.143,9.805,9.805,0,0,1,5.011,1.257,6.66,6.66,0,0,1,3.33,6c0,4.562-3.616,7.975-8.665,7.975a11.361,11.361,0,0,1-5.8-1.437l.787-2.406a10.4,10.4,0,0,0,4.976,1.293c2.972,0,5.514-1.939,5.514-5.065-.036-3.018-2.041-5.173-6.695-5.173a24.033,24.033,0,0,0-3.223.252l1.5-11.208h11.134Z" transform="translate(-1237.824 -1279.459)" fill="#fff"/>
        </g>
        <g id="Grupo_53762" data-name="Grupo 53762" transform="translate(138.846 185.274)">
          <path id="Trazado_100477" data-name="Trazado 100477" d="M1301.967,1281.695a11.356,11.356,0,0,0-2.362.143,9.476,9.476,0,0,0-8.092,8.3h.108a6.927,6.927,0,0,1,5.621-2.694c4.117,0,7.017,2.981,7.017,7.544,0,4.274-2.9,8.226-7.733,8.226-4.977,0-8.234-3.879-8.234-9.951a14.71,14.71,0,0,1,3.938-10.525,12.645,12.645,0,0,1,7.447-3.448,14.97,14.97,0,0,1,2.291-.18Zm-.9,13.471c0-3.341-1.9-5.353-4.8-5.353a5.182,5.182,0,0,0-4.51,2.875,2.69,2.69,0,0,0-.359,1.4c.072,3.845,1.826,6.681,5.12,6.681C1299.246,1300.769,1301.071,1298.506,1301.071,1295.166Z" transform="translate(-1288.291 -1279.108)" fill="#fff"/>
        </g>
        <g id="Grupo_53763" data-name="Grupo 53763" transform="translate(37.918 135.988)">
          <path id="Trazado_100478" data-name="Trazado 100478" d="M1194.494,1233.943h-.072l-4.045,2.191-.609-2.407,5.083-2.73h2.686v23.349h-3.044Z" transform="translate(-1189.768 -1230.997)" fill="#fff"/>
        </g>
        <g id="Grupo_53764" data-name="Grupo 53764" transform="translate(87.254 135.593)">
          <path id="Trazado_100479" data-name="Trazado 100479" d="M1237.928,1254.356v-1.939l2.471-2.407c5.943-5.675,8.628-8.693,8.663-12.213,0-2.371-1.145-4.563-4.618-4.563a7.909,7.909,0,0,0-4.941,1.976l-1-2.227a10.191,10.191,0,0,1,6.588-2.372c5.011,0,7.124,3.449,7.124,6.79,0,4.311-3.114,7.795-8.019,12.537l-1.861,1.725v.071h10.453v2.623Z" transform="translate(-1237.928 -1230.611)" fill="#fff"/>
        </g>
        <g id="Grupo_53765" data-name="Grupo 53765" transform="translate(139.133 135.593)">
          <path id="Trazado_100480" data-name="Trazado 100480" d="M1289.429,1250.728a10.509,10.509,0,0,0,5.156,1.472c4.045,0,5.3-2.586,5.262-4.526-.036-3.269-2.971-4.67-6.014-4.67h-1.755v-2.37h1.755c2.292,0,5.191-1.185,5.191-3.951,0-1.869-1.181-3.521-4.081-3.521a8.532,8.532,0,0,0-4.654,1.545l-.824-2.3a11.036,11.036,0,0,1,6.086-1.8c4.583,0,6.659,2.731,6.659,5.569,0,2.406-1.431,4.454-4.3,5.5v.072a6.075,6.075,0,0,1,5.191,6c0,3.736-2.9,7-8.484,7a11.793,11.793,0,0,1-6.05-1.581Z" transform="translate(-1288.571 -1230.611)" fill="#fff"/>
        </g>
        <g id="Grupo_53766" data-name="Grupo 53766" transform="translate(40.594 305.075)">
          <ellipse id="Elipse_4053" data-name="Elipse 4053" cx="2.807" cy="2.816" rx="2.807" ry="2.816" fill="#fff"/>
        </g>
        <g id="Grupo_53767" data-name="Grupo 53767" transform="translate(180.479 158.716)">
          <path id="Trazado_100481" data-name="Trazado 100481" d="M1362.275,1268.005H1347.5v-14.822h-3.8v14.822h-14.772v3.812H1343.7v14.823h3.8v-14.823h14.772Z" transform="translate(-1328.933 -1253.183)" fill="#fff"/>
        </g>
        <g id="Grupo_53768" data-name="Grupo 53768" transform="translate(136.068 290.134)">
          <path id="Trazado_100482" data-name="Trazado 100482" d="M1305.244,1399.183l-7.821-7.847,7.821-7.848-2.011-2.018-7.821,7.847-7.821-7.847-2.011,2.018,7.821,7.848-7.821,7.847,2.011,2.018,7.821-7.848,7.821,7.848Z" transform="translate(-1285.58 -1381.47)" fill="#fff"/>
        </g>
        <g id="Grupo_53769" data-name="Grupo 53769" transform="translate(183.869 247.455)">
          <rect id="Rectángulo_5159" data-name="Rectángulo 5159" width="24.738" height="3.801" fill="#fff"/>
        </g>
        <g id="Grupo_53770" data-name="Grupo 53770" transform="translate(184.781 291.388)">
          <rect id="Rectángulo_5160" data-name="Rectángulo 5160" width="24.738" height="3.801" fill="#fff"/>
        </g>
        <g id="Grupo_53771" data-name="Grupo 53771" transform="translate(184.781 300.958)">
          <rect id="Rectángulo_5161" data-name="Rectángulo 5161" width="24.738" height="3.801" fill="#fff"/>
        </g>
      </g>
      <g id="Grupo_53773" data-name="Grupo 53773" transform="translate(344.072 220.5)">
        <rect id="Rectángulo_5162" data-name="Rectángulo 5162" width="17.726" height="3.128" fill="#0e2c40"/>
      </g>
      <g id="Grupo_53774" data-name="Grupo 53774" transform="translate(348.704 153.917)">
        <rect id="Rectángulo_5163" data-name="Rectángulo 5163" width="17.726" height="3.128" fill="#0e2c40"/>
      </g>
      <g id="Grupo_53776" data-name="Grupo 53776" transform="translate(360.209 116.256)">
        <g id="Grupo_53775" data-name="Grupo 53775">
          <path id="Trazado_100483" data-name="Trazado 100483" d="M1478.254,1211.735l-6.22,130.685h27.209l5.561-130.685Z" transform="translate(-1472.033 -1211.735)" fill="#016589"/>
        </g>
      </g>
      <g id="Grupo_53777" data-name="Grupo 53777" transform="translate(371.899 134.295)">
        <path id="Trazado_100484" data-name="Trazado 100484" d="M1493.736,1235.813h-6.946v-6.469h-3.346v17.029h3.346v-7.436h6.946v7.436h3.369v-17.029h-3.369Z" transform="translate(-1483.444 -1229.344)" fill="#fff"/>
      </g>
      <g id="Grupo_53778" data-name="Grupo 53778" transform="translate(369.702 153.79)">
        <path id="Trazado_100485" data-name="Trazado 100485" d="M1495.351,1250.812a7.647,7.647,0,0,0-2.6-1.8,8.763,8.763,0,0,0-6.535-.008,7.636,7.636,0,0,0-2.609,1.8,8.226,8.226,0,0,0-1.7,2.78,10.82,10.82,0,0,0-.006,7.125,8.222,8.222,0,0,0,1.691,2.794,7.638,7.638,0,0,0,2.6,1.815,8.662,8.662,0,0,0,6.582-.006,7.619,7.619,0,0,0,2.6-1.83,8.4,8.4,0,0,0,1.685-2.789,10.756,10.756,0,0,0-.007-7.1A8.285,8.285,0,0,0,1495.351,1250.812Zm-1.114,6.334a7.791,7.791,0,0,1-.369,2.49,5.265,5.265,0,0,1-1,1.8,4.129,4.129,0,0,1-1.484,1.089,5.044,5.044,0,0,1-3.824,0,4.175,4.175,0,0,1-1.479-1.089,5.2,5.2,0,0,1-.991-1.8,7.915,7.915,0,0,1-.365-2.493,7.693,7.693,0,0,1,.368-2.465,5.223,5.223,0,0,1,1-1.779,4.288,4.288,0,0,1,1.5-1.088,4.869,4.869,0,0,1,1.926-.378,4.689,4.689,0,0,1,1.881.374,4.2,4.2,0,0,1,1.475,1.073,5.167,5.167,0,0,1,.995,1.779A7.766,7.766,0,0,1,1494.237,1257.146Z" transform="translate(-1481.3 -1248.374)" fill="#fff"/>
      </g>
      <g id="Grupo_53779" data-name="Grupo 53779" transform="translate(370.506 174.089)">
        <path id="Trazado_100486" data-name="Trazado 100486" d="M1482.084,1271.326h5.188v13.893h3.346v-13.893h5.22v-3.136h-13.754Z" transform="translate(-1482.084 -1268.19)" fill="#fff"/>
      </g>
      <g id="Grupo_53780" data-name="Grupo 53780" transform="translate(370.079 193.608)">
        <path id="Trazado_100487" data-name="Trazado 100487" d="M1485.014,1297.047h8.719v-3.136h-8.719v-3.531h9.336v-3.136h-12.681v17.029H1494.7v-3.136h-9.685Z" transform="translate(-1481.668 -1287.245)" fill="#fff"/>
      </g>
      <g id="Grupo_53781" data-name="Grupo 53781" transform="translate(369.59 213.7)">
        <path id="Trazado_100488" data-name="Trazado 100488" d="M1484.738,1321.587v-14.73h-3.547v18.054h11.69v-3.325Z" transform="translate(-1481.191 -1306.858)" fill="#fff"/>
      </g>
      <g id="Grupo_53783" data-name="Grupo 53783" transform="translate(203.309 119.434)">
        <g id="Grupo_53782" data-name="Grupo 53782">
          <path id="Trazado_100489" data-name="Trazado 100489" d="M1329.893,1434.995H1457.4l11.023-220.158H1318.871Z" transform="translate(-1318.871 -1214.837)" fill="#8d4bcb"/>
        </g>
      </g>
      <g id="Grupo_53784" data-name="Grupo 53784" transform="translate(239.356 82.194)">
        <path id="Trazado_100490" data-name="Trazado 100490" d="M1354.059,1224.661l4.767-22.344,11.619-15.194,22.343-8.64,20.556,2.681,11.917,11.619,7.15,15.789,2.681,16.087-22.641,2.085Z" transform="translate(-1354.059 -1178.485)" fill="#8d4bcb"/>
      </g>
      <g id="Grupo_53785" data-name="Grupo 53785" transform="translate(262.519 275.54)">
        <path id="Trazado_100491" data-name="Trazado 100491" d="M1379.128,1422.115l-2.458-54.89h33.218l-2.16,55.561-24.205-.521Z" transform="translate(-1376.67 -1367.224)" fill="#237bab"/>
      </g>
      <g id="Grupo_53786" data-name="Grupo 53786" transform="translate(307.28 274.869)">
        <path id="Trazado_100492" data-name="Trazado 100492" d="M1421.528,1408.994h17.726l3.128-41.261h-20.854Z" transform="translate(-1420.337 -1366.541)" fill="#c9ebff"/>
        <path id="Trazado_100493" data-name="Trazado 100493" d="M1440.388,1410.214h-20.023v-43.645H1443.7Zm-17.64-2.383h15.43l2.948-38.878h-18.378Z" transform="translate(-1420.365 -1366.569)" fill="#fff"/>
      </g>
      <g id="Grupo_53787" data-name="Grupo 53787" transform="translate(308.472 288.077)">
        <rect id="Rectángulo_5164" data-name="Rectángulo 5164" width="19.853" height="2.383" fill="#fff"/>
      </g>
      <g id="Grupo_53788" data-name="Grupo 53788" transform="translate(227.453 274.869)">
        <path id="Trazado_100494" data-name="Trazado 100494" d="M1364.549,1408.994h-17.726l-3.128-41.261h20.854Z" transform="translate(-1342.409 -1366.541)" fill="#c9ebff"/>
        <path id="Trazado_100495" data-name="Trazado 100495" d="M1365.771,1410.214h-20.022l-3.309-43.645h23.331Zm-17.812-2.383h15.43v-38.878H1345.01Z" transform="translate(-1342.44 -1366.569)" fill="#fff"/>
      </g>
      <g id="Grupo_53789" data-name="Grupo 53789" transform="translate(229.74 288.077)">
        <rect id="Rectángulo_5165" data-name="Rectángulo 5165" width="19.853" height="2.383" fill="#fff"/>
      </g>
      <g id="Grupo_53791" data-name="Grupo 53791" transform="translate(203.309 186.017)">
        <g id="Grupo_53790" data-name="Grupo 53790">
          <path id="Trazado_100496" data-name="Trazado 100496" d="M1318.871,1280.877l2.085,13.555,145.531-1.788,1.192-12.81Z" transform="translate(-1318.871 -1279.834)" fill="#ce83f5"/>
        </g>
      </g>
      <g id="Grupo_53792" data-name="Grupo 53792" transform="translate(308.148 207.169)">
        <path id="Trazado_100497" data-name="Trazado 100497" d="M1423.146,1301.645l-.745,34.26H1444.6l1.936-34.26Z" transform="translate(-1421.183 -1300.454)" fill="#c9ebff"/>
        <path id="Trazado_100498" data-name="Trazado 100498" d="M1445.751,1337.125h-24.539l.8-36.643h25.813Zm-22.1-2.383h19.85l1.8-31.878h-20.959Z" transform="translate(-1421.212 -1300.482)" fill="#fff"/>
      </g>
      <g id="Grupo_53793" data-name="Grupo 53793" transform="translate(309.832 219.98)">
        <rect id="Rectángulo_5166" data-name="Rectángulo 5166" width="22.941" height="2.383" fill="#fff"/>
      </g>
      <g id="Grupo_53794" data-name="Grupo 53794" transform="translate(318.835 208.312)">
        <rect id="Rectángulo_5167" data-name="Rectángulo 5167" width="34.289" height="2.383" transform="translate(0 34.26) rotate(-87.649)" fill="#fff"/>
      </g>
      <g id="Grupo_53795" data-name="Grupo 53795" transform="translate(266.341 207.169)">
        <path id="Trazado_100499" data-name="Trazado 100499" d="M1381.59,1301.645l.752,34.26h21.728l1.936-34.26Z" transform="translate(-1380.372 -1300.454)" fill="#c9ebff"/>
        <path id="Trazado_100500" data-name="Trazado 100500" d="M1405.225,1337.125h-24.02l-.8-36.643h26.9Zm-21.689-2.383h19.435l1.8-31.878h-21.937Z" transform="translate(-1380.401 -1300.482)" fill="#fff"/>
      </g>
      <g id="Grupo_53796" data-name="Grupo 53796" transform="translate(268.311 219.98)">
        <rect id="Rectángulo_5168" data-name="Rectángulo 5168" width="22.941" height="2.383" fill="#fff"/>
      </g>
      <g id="Grupo_53797" data-name="Grupo 53797" transform="translate(278.327 208.351)">
        <rect id="Rectángulo_5169" data-name="Rectángulo 5169" width="2.383" height="34.261" transform="matrix(1, -0.008, 0.008, 1, 0, 0.018)" fill="#fff"/>
      </g>
      <g id="Grupo_53798" data-name="Grupo 53798" transform="translate(219.892 207.169)">
        <path id="Trazado_100501" data-name="Trazado 100501" d="M1359.676,1301.645l.745,34.26h-22.194l-1.937-34.26Z" transform="translate(-1335.029 -1300.454)" fill="#c9ebff"/>
        <path id="Trazado_100502" data-name="Trazado 100502" d="M1361.669,1337.125h-24.54l-2.07-36.643h25.813Zm-22.286-2.383h19.85l-.694-31.878h-20.958Z" transform="translate(-1335.059 -1300.482)" fill="#fff"/>
      </g>
      <g id="Grupo_53799" data-name="Grupo 53799" transform="translate(221.877 219.98)">
        <rect id="Rectángulo_5170" data-name="Rectángulo 5170" width="22.941" height="2.383" fill="#fff"/>
      </g>
      <g id="Grupo_53800" data-name="Grupo 53800" transform="translate(232.028 208.311)">
        <rect id="Rectángulo_5171" data-name="Rectángulo 5171" width="2.383" height="34.289" transform="translate(0 0.098) rotate(-2.347)" fill="#fff"/>
      </g>
      <g id="Grupo_53801" data-name="Grupo 53801" transform="translate(308.148 135.468)">
        <path id="Trazado_100503" data-name="Trazado 100503" d="M1423.146,1231.652l-.745,34.26H1444.6l1.936-34.26Z" transform="translate(-1421.183 -1230.461)" fill="#c9ebff"/>
        <path id="Trazado_100504" data-name="Trazado 100504" d="M1445.751,1267.132h-24.539l.8-36.643h25.813Zm-22.1-2.383h19.85l1.8-31.878h-20.959Z" transform="translate(-1421.212 -1230.489)" fill="#fff"/>
      </g>
      <g id="Grupo_53802" data-name="Grupo 53802" transform="translate(309.832 148.279)">
        <rect id="Rectángulo_5172" data-name="Rectángulo 5172" width="22.941" height="2.383" fill="#fff"/>
      </g>
      <g id="Grupo_53803" data-name="Grupo 53803" transform="translate(318.835 136.611)">
        <rect id="Rectángulo_5173" data-name="Rectángulo 5173" width="34.289" height="2.383" transform="translate(0 34.26) rotate(-87.649)" fill="#fff"/>
      </g>
      <g id="Grupo_53804" data-name="Grupo 53804" transform="translate(266.341 135.468)">
        <path id="Trazado_100505" data-name="Trazado 100505" d="M1381.59,1231.652l.752,34.26h21.728l1.936-34.26Z" transform="translate(-1380.372 -1230.461)" fill="#c9ebff"/>
        <path id="Trazado_100506" data-name="Trazado 100506" d="M1405.225,1267.132h-24.02l-.8-36.643h26.9Zm-21.689-2.383h19.435l1.8-31.878h-21.937Z" transform="translate(-1380.401 -1230.489)" fill="#fff"/>
      </g>
      <g id="Grupo_53805" data-name="Grupo 53805" transform="translate(268.311 148.279)">
        <rect id="Rectángulo_5174" data-name="Rectángulo 5174" width="22.941" height="2.383" fill="#fff"/>
      </g>
      <g id="Grupo_53806" data-name="Grupo 53806" transform="translate(278.327 136.65)">
        <rect id="Rectángulo_5175" data-name="Rectángulo 5175" width="2.383" height="34.261" transform="matrix(1, -0.008, 0.008, 1, 0, 0.018)" fill="#fff"/>
      </g>
      <g id="Grupo_53807" data-name="Grupo 53807" transform="translate(219.892 135.468)">
        <path id="Trazado_100507" data-name="Trazado 100507" d="M1359.676,1231.652l.745,34.26h-22.194l-1.937-34.26Z" transform="translate(-1335.029 -1230.461)" fill="#c9ebff"/>
        <path id="Trazado_100508" data-name="Trazado 100508" d="M1361.669,1267.132h-24.54l-2.07-36.643h25.813Zm-22.286-2.383h19.85l-.694-31.878h-20.958Z" transform="translate(-1335.059 -1230.489)" fill="#fff"/>
      </g>
      <g id="Grupo_53808" data-name="Grupo 53808" transform="translate(221.877 148.279)">
        <rect id="Rectángulo_5176" data-name="Rectángulo 5176" width="22.941" height="2.383" fill="#fff"/>
      </g>
      <g id="Grupo_53809" data-name="Grupo 53809" transform="translate(232.028 136.61)">
        <rect id="Rectángulo_5177" data-name="Rectángulo 5177" width="2.383" height="34.289" transform="translate(0 0.098) rotate(-2.347)" fill="#fff"/>
      </g>
      <g id="Grupo_53811" data-name="Grupo 53811" transform="translate(207.039 251.201)">
        <g id="Grupo_53810" data-name="Grupo 53810">
          <path id="Trazado_100509" data-name="Trazado 100509" d="M1322.512,1344.508l1.98,13.555,138.174-1.787,1.131-12.81Z" transform="translate(-1322.512 -1343.465)" fill="#ce83f5"/>
        </g>
      </g>
      <g id="Grupo_53812" data-name="Grupo 53812" transform="translate(255.686 98.132)">
        <path id="Trazado_100510" data-name="Trazado 100510" d="M1370,1215.345s3.481-21.3,24.186-21.3c21.152,0,23.133,21.3,23.133,21.3Z" transform="translate(-1370 -1194.043)" fill="#e4f5ff"/>
      </g>
      <g id="Grupo_53813" data-name="Grupo 53813" transform="translate(264.39 316.782)">
        <path id="Trazado_100511" data-name="Trazado 100511" d="M1378.5,1408.024l29.743-.54-.557,14.319-28.6-.67Z" transform="translate(-1378.496 -1407.483)" fill="#1c6187"/>
      </g>
      <g id="Grupo_53814" data-name="Grupo 53814" transform="translate(276.102 93.408)">
        <path id="Trazado_100512" data-name="Trazado 100512" d="M1389.93,1194.41l.929,21.047c.085,3.318,6.247,4.568,5.523,0v-21.166c.725-2.626-1.746-4.86-2.681-4.86C1392.373,1189.431,1389.93,1191.962,1389.93,1194.41Z" transform="translate(-1389.93 -1189.431)" fill="#8d4bcb"/>
      </g>
      <g id="Grupo_53816" data-name="Grupo 53816" transform="translate(198.645 79.513)">
        <g id="Grupo_53815" data-name="Grupo 53815">
          <path id="Trazado_100513" data-name="Trazado 100513" d="M1438.594,1211.617s-5.412-35.75-42.353-35.75c-35.353,0-43.595,35.75-43.595,35.75l-38.328.051,1.287,8.688h42.5s3.973-37.537,38.729-38.53c27.974-.8,34.586,27.462,36.1,38.53h38.97l1.33-7.979Z" transform="translate(-1314.318 -1175.867)" fill="#eb9efe"/>
        </g>
      </g>
      <g id="Grupo_53818" data-name="Grupo 53818" transform="translate(199.734 183.336)">
        <g id="Grupo_53817" data-name="Grupo 53817">
          <path id="Trazado_100514" data-name="Trazado 100514" d="M1315.381,1278.706l.894,6.405,152.978-.745.894-7.15Z" transform="translate(-1315.381 -1277.217)" fill="#eb9efe"/>
        </g>
      </g>
      <g id="Grupo_53820" data-name="Grupo 53820" transform="translate(203.645 248.52)">
        <g id="Grupo_53819" data-name="Grupo 53819">
          <path id="Trazado_100515" data-name="Trazado 100515" d="M1319.2,1342.337l.849,6.405,145.246-.745.849-7.15Z" transform="translate(-1319.199 -1340.847)" fill="#eb9efe"/>
        </g>
      </g>
      <g id="Grupo_53821" data-name="Grupo 53821" transform="translate(259.167 328.941)">
        <path id="Trazado_100516" data-name="Trazado 100516" d="M1373.4,1425.385v-6.033h40.144l.894,6.852-11.768.968-18.992.3Z" transform="translate(-1373.398 -1419.353)" fill="#eb9efe"/>
      </g>
      <g id="Grupo_53822" data-name="Grupo 53822" transform="translate(252.911 333.931)">
        <path id="Trazado_100517" data-name="Trazado 100517" d="M1367.738,1429.884l-.447-5.363,54-.3-.521,5.66Z" transform="translate(-1367.291 -1424.224)" fill="#ce83f5"/>
      </g>
      <g id="Grupo_53823" data-name="Grupo 53823" transform="translate(266.893 301.533)">
        <path id="Trazado_100518" data-name="Trazado 100518" d="M1384.515,1394.385a1.788,1.788,0,1,0-1.788,1.788A1.787,1.787,0,0,0,1384.515,1394.385Z" transform="translate(-1380.94 -1392.598)" fill="#fff"/>
      </g>
    </g>
    <g id="Grupo_53952" data-name="Grupo 53952" transform="translate(1542.521 1330.094)">
      <rect id="Rectángulo_5441" data-name="Rectángulo 5441" width="6.765" height="80.109" transform="translate(-17.519 40.766)" fill="url(#linear-gradient)"/>
      <path id="Trazado_101087" data-name="Trazado 101087" d="M673.2,428.17c0,34.688-11.857,42.457-26.486,42.457s-26.5-7.769-26.5-42.457c0-2.207.051-4.459.135-6.76,1.382-33.891,12.65-76.389,26.362-76.389,3.161,0,6.2,2.27,9,6.172C665.92,365.344,673.2,400.985,673.2,428.17Z" transform="translate(-659.979 -380.455)" fill="url(#linear-gradient-2)"/>
    </g>
    <g id="Grupo_53953" data-name="Grupo 53953" transform="translate(1015.795 1338.896)">
      <rect id="Rectángulo_5442" data-name="Rectángulo 5442" width="6.748" height="79.897" transform="translate(97.15 32.431)" fill="url(#linear-gradient)"/>
      <path id="Trazado_101088" data-name="Trazado 101088" d="M379.027,432.867c0,34.6-11.825,42.342-26.415,42.342s-26.428-7.746-26.428-42.342c0-2.2.053-4.45.136-6.743,1.377-33.8,12.615-76.189,26.292-76.189,3.153,0,6.181,2.268,8.976,6.158C371.764,370.206,379.027,405.752,379.027,432.867Z" transform="translate(-251.214 -393.505)" fill="url(#linear-gradient-4)"/>
    </g>
  </g>
</svg>
