<svg xmlns="http://www.w3.org/2000/svg" width="107.472" height="107.473" viewBox="0 0 107.472 107.473">
  <g id="Grupo_56173" data-name="Grupo 56173" transform="translate(-1054 -4678.273)">
    <path id="Trazado_106221" data-name="Trazado 106221" d="M53.736,0A53.736,53.736,0,1,1,0,53.736,53.736,53.736,0,0,1,53.736,0Z" transform="translate(1054 4678.273)" fill="#ff9800"/>
    <circle id="Elipse_4079" data-name="Elipse 4079" cx="40.179" cy="40.179" r="40.179" transform="translate(1067.558 4691.831)" fill="#fff"/>
    <rect id="Rectángulo_6060" data-name="Rectángulo 6060" width="12.886" height="6.75" transform="translate(1103.147 4751.666)" fill="#445ea0"/>
    <rect id="Rectángulo_6061" data-name="Rectángulo 6061" width="3.248" height="6.75" transform="translate(1103.147 4751.666)" fill="#3e4c84"/>
    <path id="Trazado_104721" data-name="Trazado 104721" d="M3106.354,1132.858h-30.991a.837.837,0,0,0-.835.836v4.186a.837.837,0,0,0,.835.835h30.991v-5.857Z" transform="translate(-1981.737 3625.394)" fill="#3e4c84"/>
    <path id="Trazado_104722" data-name="Trazado 104722" d="M3077.776,1137.88v-4.186a.838.838,0,0,1,.835-.836h-3.248a.837.837,0,0,0-.835.836v4.186a.838.838,0,0,0,.835.835h3.248A.838.838,0,0,1,3077.776,1137.88Z" transform="translate(-1981.737 3625.394)" fill="#1a2b63"/>
    <path id="Trazado_104723" data-name="Trazado 104723" d="M3128.177,1078.063a.838.838,0,0,0-.835-.835h-72.028a.838.838,0,0,0-.835.835v22.217h0v25.32a.838.838,0,0,0,.836.836h72.026a.837.837,0,0,0,.835-.836v-25.32h0Z" transform="translate(-1981.737 3625.394)" fill="#3e4c84"/>
    <path id="Trazado_104724" data-name="Trazado 104724" d="M3124.51,1085.419h-66.365v14.861h0v17.8a.5.5,0,0,0,.5.5h65.362a.5.5,0,0,0,.5-.5v-17.8h0Z" transform="translate(-1981.737 3625.394)" fill="#fff"/>
    <path id="Trazado_104725" data-name="Trazado 104725" d="M3061.394,1118.083v-32.664h-3.248v32.664a.5.5,0,0,0,.5.5h3.249A.5.5,0,0,1,3061.394,1118.083Z" transform="translate(-1981.737 3625.394)" fill="#d9eafc"/>
    <circle id="Elipse_4087" data-name="Elipse 4087" cx="2.255" cy="2.255" r="2.255" transform="translate(1107.336 4745.634)" fill="#445ea0"/>
    <path id="Trazado_104726" data-name="Trazado 104726" d="M3116.381,1104.107h-6.976a.451.451,0,0,0-.392.491v9.764a.451.451,0,0,0,.392.491h6.976Z" transform="translate(-1981.737 3625.394)" fill="#ffc571"/>
    <path id="Trazado_104727" data-name="Trazado 104727" d="M3124.009,1081.488h-65.362a.5.5,0,0,0-.5.5v3.594h66.364v-3.594A.5.5,0,0,0,3124.009,1081.488Z" transform="translate(-1981.737 3625.394)" fill="#ffaf10"/>
    <path id="Trazado_104728" data-name="Trazado 104728" d="M3061.9,1081.488h-3.249a.5.5,0,0,0-.5.5v3.594h3.248v-3.594A.5.5,0,0,1,3061.9,1081.488Z" transform="translate(-1981.737 3625.394)" fill="#ff9518"/>
    <g id="Grupo_56168" data-name="Grupo 56168" transform="translate(-1981.737 3625.394)">
      <path id="Trazado_104729" data-name="Trazado 104729" d="M3082.557,1106.7h-13.78a1.227,1.227,0,1,1,0-2.455h13.78a1.227,1.227,0,1,1,0,2.455Z" fill="#bcbcbc"/>
      <path id="Trazado_104730" data-name="Trazado 104730" d="M3082.557,1110.708h-13.78a1.228,1.228,0,0,1,0-2.456h13.78a1.228,1.228,0,0,1,0,2.456Z" fill="#bcbcbc"/>
      <path id="Trazado_104731" data-name="Trazado 104731" d="M3082.557,1114.717h-13.78a1.228,1.228,0,0,1,0-2.456h13.78a1.228,1.228,0,0,1,0,2.456Z" fill="#bcbcbc"/>
      <path id="Trazado_104732" data-name="Trazado 104732" d="M3093.372,1106.7h-7.094a1.227,1.227,0,0,1,0-2.455h7.094a1.227,1.227,0,0,1,0,2.455Z" fill="#bcbcbc"/>
      <path id="Trazado_104733" data-name="Trazado 104733" d="M3093.372,1110.708h-7.094a1.228,1.228,0,0,1,0-2.456h7.094a1.228,1.228,0,0,1,0,2.456Z" fill="#bcbcbc"/>
      <path id="Trazado_104734" data-name="Trazado 104734" d="M3093.372,1114.717h-7.094a1.228,1.228,0,0,1,0-2.456h7.094a1.228,1.228,0,0,1,0,2.456Z" fill="#bcbcbc"/>
      <path id="Trazado_104735" data-name="Trazado 104735" d="M3105.563,1106.7h-7.093a1.227,1.227,0,1,1,0-2.455h7.093a1.227,1.227,0,1,1,0,2.455Z" fill="#bcbcbc"/>
      <path id="Trazado_104736" data-name="Trazado 104736" d="M3105.563,1110.708h-7.093a1.228,1.228,0,0,1,0-2.456h7.093a1.228,1.228,0,0,1,0,2.456Z" fill="#bcbcbc"/>
      <path id="Trazado_104737" data-name="Trazado 104737" d="M3105.563,1114.717h-7.093a1.228,1.228,0,0,1,0-2.456h7.093a1.228,1.228,0,0,1,0,2.456Z" fill="#bcbcbc"/>
    </g>
    <rect id="Rectángulo_6062" data-name="Rectángulo 6062" width="47.247" height="12.528" transform="translate(1087.821 4714.151)" fill="#c3ddf4"/>
    <path id="Trazado_104738" data-name="Trazado 104738" d="M3070.773,1100.467v-10.891a.821.821,0,0,1,.819-.819h-3.249a.821.821,0,0,0-.819.819v10.891a.821.821,0,0,0,.819.818h3.249A.821.821,0,0,1,3070.773,1100.467Z" transform="translate(-1981.737 3625.394)" fill="#aec1ed"/>
  </g>
</svg>
