<svg xmlns="http://www.w3.org/2000/svg" width="107.472" height="107.473" viewBox="0 0 107.472 107.473">
  <g id="Grupo_56172" data-name="Grupo 56172" transform="translate(-849.473 -4678.273)">
    <circle id="Elipse_4080" data-name="Elipse 4080" cx="53.736" cy="53.736" r="53.736" transform="translate(849.473 4678.273)" fill="#ff9800"/>
    <circle id="Elipse_4085" data-name="Elipse 4085" cx="40.179" cy="40.179" r="40.179" transform="translate(863.03 4691.831)" fill="#fff"/>
    <g id="Grupo_56166" data-name="Grupo 56166" transform="translate(-1981.737 3625.394)">
      <path id="Trazado_104701" data-name="Trazado 104701" d="M2917.253,1078.192v52.314a40.217,40.217,0,0,1-48.5,12.889,40.286,40.286,0,0,1-9.878-6.211,40.4,40.4,0,0,1-6.231-6.678v-52.314a5.971,5.971,0,0,1,5.971-5.971h52.672A5.971,5.971,0,0,1,2917.253,1078.192Z" fill="#3e4c84"/>
      <path id="Trazado_104702" data-name="Trazado 104702" d="M2911.021,1089.432v47.752a40.151,40.151,0,0,1-52.151,0v-47.752a3.763,3.763,0,0,1,3.763-3.764h44.624A3.764,3.764,0,0,1,2911.021,1089.432Z" fill="#f0f0f0"/>
      <path id="Trazado_104703" data-name="Trazado 104703" d="M2900.935,1073.826v10.565a3.572,3.572,0,0,1-3.573,3.573h-24.833a3.572,3.572,0,0,1-3.573-3.573v-10.565a3.572,3.572,0,0,1,3.573-3.573h6.252a6.886,6.886,0,0,1,11.919-.712.578.578,0,0,1,.036.058c.1.149.189.3.273.46.037.069.072.135.1.194h6.252A3.572,3.572,0,0,1,2900.935,1073.826Z" fill="#f2ae5a"/>
      <path id="Trazado_104704" data-name="Trazado 104704" d="M2900.935,1073.826v10.565a3.572,3.572,0,0,1-3.573,3.573h-22.373a3.572,3.572,0,0,1-3.573-3.573v-10.565a3.572,3.572,0,0,1,3.573-3.573h3.792a6.886,6.886,0,0,1,11.919-.712c.013.02.025.038.036.058.1.169.2.324.273.46.037.069.072.135.1.194h6.252A3.572,3.572,0,0,1,2900.935,1073.826Z" fill="#f9df73"/>
      <circle id="Elipse_4086" data-name="Elipse 4086" cx="2.378" cy="2.378" r="2.378" transform="translate(2882.568 1069.679)" fill="#343a6e"/>
      <path id="Trazado_104705" data-name="Trazado 104705" d="M2893.8,1082.717H2876.09a1.722,1.722,0,0,1-1.722-1.722h0a1.722,1.722,0,0,1,1.722-1.722H2893.8a1.722,1.722,0,0,1,1.722,1.722h0A1.722,1.722,0,0,1,2893.8,1082.717Z" fill="#f2ae5a"/>
      <path id="Trazado_104706" data-name="Trazado 104706" d="M2874.614,1107.972h-10.332a1.641,1.641,0,0,1-1.64-1.64V1096a1.64,1.64,0,0,1,1.64-1.64h10.332a1.64,1.64,0,0,1,1.64,1.64v10.332A1.64,1.64,0,0,1,2874.614,1107.972Zm-8.692-3.28h7.052v-7.052h-7.052Z" fill="#d9dadd"/>
      <g id="Grupo_56163" data-name="Grupo 56163">
        <path id="Trazado_104707" data-name="Trazado 104707" d="M2891.178,1099.608h-10.332a1.64,1.64,0,0,1,0-3.28h10.332a1.64,1.64,0,1,1,0,3.28Z" fill="#bcbcbc"/>
        <path id="Trazado_104708" data-name="Trazado 104708" d="M2903.969,1106h-23.123a1.64,1.64,0,0,1,0-3.28h23.124a1.64,1.64,0,1,1,0,3.28Z" fill="#bcbcbc"/>
      </g>
      <path id="Trazado_104709" data-name="Trazado 104709" d="M2874.614,1125.683h-10.332a1.64,1.64,0,0,1-1.64-1.64v-10.332a1.64,1.64,0,0,1,1.64-1.639h10.332a1.639,1.639,0,0,1,1.64,1.639v10.332A1.64,1.64,0,0,1,2874.614,1125.683Zm-8.692-3.28h7.052v-7.052h-7.052Z" fill="#d9dadd"/>
      <g id="Grupo_56164" data-name="Grupo 56164">
        <path id="Trazado_104710" data-name="Trazado 104710" d="M2891.178,1117.319h-10.332a1.64,1.64,0,0,1,0-3.28h10.332a1.64,1.64,0,1,1,0,3.28Z" fill="#bcbcbc"/>
        <path id="Trazado_104711" data-name="Trazado 104711" d="M2903.969,1123.715h-23.123a1.64,1.64,0,0,1,0-3.28h23.124a1.64,1.64,0,1,1,0,3.28Z" fill="#bcbcbc"/>
      </g>
      <path id="Trazado_104712" data-name="Trazado 104712" d="M2874.614,1129.783h-10.332a1.641,1.641,0,0,0-1.64,1.64v8.616a39.873,39.873,0,0,0,6.106,3.356h5.866a1.641,1.641,0,0,0,1.64-1.64v-10.332A1.641,1.641,0,0,0,2874.614,1129.783Zm-1.64,10.332h-7.052v-7.052h7.052Z" fill="#d9dadd"/>
      <g id="Grupo_56165" data-name="Grupo 56165">
        <path id="Trazado_104713" data-name="Trazado 104713" d="M2891.178,1135.031h-10.332a1.64,1.64,0,0,1,0-3.28h10.332a1.64,1.64,0,1,1,0,3.28Z" fill="#bcbcbc"/>
        <path id="Trazado_104714" data-name="Trazado 104714" d="M2903.969,1141.427h-23.123a1.64,1.64,0,0,1,0-3.28h23.124a1.64,1.64,0,1,1,0,3.28Z" fill="#bcbcbc"/>
      </g>
      <path id="Trazado_104715" data-name="Trazado 104715" d="M2869.366,1124.207a1.64,1.64,0,0,1-1.364-.73l-5.248-7.872a1.64,1.64,0,0,1,2.729-1.819l3.641,5.462,4.664-9.847a1.64,1.64,0,1,1,2.964,1.405l-5.9,12.463a1.642,1.642,0,0,1-1.363.934C2869.446,1124.206,2869.406,1124.207,2869.366,1124.207Z" fill="#ffc571"/>
    </g>
  </g>
</svg>
