<svg xmlns="http://www.w3.org/2000/svg" width="81.658" height="84.716" viewBox="0 0 81.658 84.716">
  <g id="Grupo_56685" data-name="Grupo 56685" transform="translate(-3587.246 -2471.019)">
    <g id="Grupo_56683" data-name="Grupo 56683">
      <g id="Grupo_53993" data-name="Grupo 53993">
        <path id="Trazado_101092" data-name="Trazado 101092" d="M3668.9,2511.848a40.829,40.829,0,1,1-40.829-40.829,40.828,40.828,0,0,1,40.829,40.829Z" fill="#ce83f5"/>
      </g>
    </g>
    <rect id="Rectángulo_6249" data-name="Rectángulo 6249" width="60.189" height="7.276" rx="3.638" transform="translate(3597.765 2486.543)" fill="#8032b2"/>
    <path id="Trazado_105631" data-name="Trazado 105631" d="M3603.246,2486.543v63.392a5.817,5.817,0,0,0,5.8,5.8h38.147a5.818,5.818,0,0,0,5.8-5.8v-63.392Z" fill="#b0dde9"/>
    <rect id="Rectángulo_6250" data-name="Rectángulo 6250" width="11.622" height="69.165" transform="translate(3634.002 2486.543)" fill="#868c8e"/>
    <rect id="Rectángulo_6251" data-name="Rectángulo 6251" width="4.913" height="42.024" transform="translate(3622.049 2489.638)" fill="#69c3da"/>
    <rect id="Rectángulo_6252" data-name="Rectángulo 6252" width="4.346" height="13.11" transform="translate(3613.828 2489.638)" fill="#69c3da"/>
    <rect id="Rectángulo_6253" data-name="Rectángulo 6253" width="4.346" height="13.11" transform="translate(3613.828 2505.795)" fill="#69c3da"/>
    <rect id="Rectángulo_6254" data-name="Rectángulo 6254" width="49.748" height="6.189" transform="translate(3603.246 2486.543)" fill="#4890a0" opacity="0.34"/>
    <circle id="Elipse_4281" data-name="Elipse 4281" cx="7.062" cy="7.062" r="7.062" transform="translate(3609.371 2537.236)" fill="#69c3da"/>
    <g id="Grupo_56685-2" data-name="Grupo 56685">
      <path id="Trazado_105632" data-name="Trazado 105632" d="M3614.552,2545.6a.884.884,0,0,0,.7-.29,2.76,2.76,0,0,0,.477-.987q.219-.7.434-1.2a4.04,4.04,0,0,1,.5-.866,2.053,2.053,0,0,1,.658-.561,1.9,1.9,0,0,1,.9-.2,1.834,1.834,0,0,1,1.475.689,3.2,3.2,0,0,1,.672,1.833h1.14v1.022h-1.156a2.856,2.856,0,0,1-.786,1.768,2.316,2.316,0,0,1-1.692.639V2545.6a1.3,1.3,0,0,0,.956-.316,1.138,1.138,0,0,0,.317-.846,1.2,1.2,0,0,0-.247-.81.855.855,0,0,0-.685-.288.815.815,0,0,0-.649.281,3.264,3.264,0,0,0-.5,1.044,12.451,12.451,0,0,1-.482,1.254,3.641,3.641,0,0,1-.511.831,2.018,2.018,0,0,1-.65.517,1.918,1.918,0,0,1-.85.179,1.823,1.823,0,0,1-1.47-.677,3.277,3.277,0,0,1-.667-1.865h-1.06v-1.015h1.056a3.356,3.356,0,0,1,.774-2.027,2.259,2.259,0,0,1,1.751-.718v1.845a1.267,1.267,0,0,0-.972.36,1.461,1.461,0,0,0-.339,1.038,1.439,1.439,0,0,0,.248.888A.8.8,0,0,0,3614.552,2545.6Z" fill="#fff"/>
    </g>
  </g>
</svg>
