<svg xmlns="http://www.w3.org/2000/svg" width="62.006" height="63.507" viewBox="0 0 62.006 63.507">
  <g id="Grupo_56948" data-name="Grupo 56948" transform="translate(-769.378 -2255)">
    <g id="Grupo_56726" data-name="Grupo 56726" transform="translate(571.036 -41.122)">
      <g id="Grupo_56170" data-name="Grupo 56170" transform="translate(198.342 2297.122)">
        <circle id="Elipse_4081" data-name="Elipse 4081" cx="31.003" cy="31.003" r="31.003" fill="#ff9800"/>
      </g>
    </g>
    <path id="Sustracción_8" data-name="Sustracción 8" d="M-9485.62,11772.007a30.942,30.942,0,0,1-10.12-1.689,30.877,30.877,0,0,1-8.722-4.691,31.131,31.131,0,0,1-6.756-7.127,30.828,30.828,0,0,1-4.225-9h59.649a30.808,30.808,0,0,1-4.226,9,31.115,31.115,0,0,1-6.757,7.127,30.886,30.886,0,0,1-8.724,4.691A30.939,30.939,0,0,1-9485.62,11772.007Z" transform="translate(10286 -9454)" fill="#ee6e00" stroke="rgba(0,0,0,0)" stroke-miterlimit="10" stroke-width="1"/>
    <text id="_5" data-name="5" transform="translate(787 2302)" fill="#fff" font-size="45" font-family="Roboto-Black, Roboto" font-weight="800"><tspan x="0" y="0">5</tspan></text>
  </g>
</svg>
