<svg xmlns="http://www.w3.org/2000/svg" width="81.658" height="84.716" viewBox="0 0 81.658 84.716">
  <g id="Grupo_56686" data-name="Grupo 56686" transform="translate(-3727.845 -2471.019)">
    <g id="Grupo_56683" data-name="Grupo 56683">
      <g id="Grupo_53993" data-name="Grupo 53993">
        <path id="Trazado_101092" data-name="Trazado 101092" d="M3809.5,2511.848a40.829,40.829,0,1,1-40.829-40.829,40.829,40.829,0,0,1,40.829,40.829Z" fill="#ce83f5"/>
      </g>
    </g>
    <rect id="Rectángulo_6255" data-name="Rectángulo 6255" width="60.189" height="7.276" rx="3.638" transform="translate(3738.364 2486.543)" fill="#8032b2"/>
    <path id="Trazado_105633" data-name="Trazado 105633" d="M3743.844,2486.543v63.392a5.817,5.817,0,0,0,5.8,5.8h38.146a5.817,5.817,0,0,0,5.8-5.8v-63.392Z" fill="#ffb74d"/>
    <rect id="Rectángulo_6256" data-name="Rectángulo 6256" width="11.622" height="69.165" transform="translate(3774.6 2486.543)" fill="#868c8e"/>
    <rect id="Rectángulo_6257" data-name="Rectángulo 6257" width="4.913" height="42.024" transform="translate(3762.647 2489.638)" fill="#d88921"/>
    <rect id="Rectángulo_6258" data-name="Rectángulo 6258" width="4.346" height="13.11" transform="translate(3754.427 2489.638)" fill="#d88921"/>
    <rect id="Rectángulo_6259" data-name="Rectángulo 6259" width="4.346" height="13.11" transform="translate(3754.427 2505.795)" fill="#d88921"/>
    <rect id="Rectángulo_6260" data-name="Rectángulo 6260" width="49.748" height="6.189" transform="translate(3743.844 2486.543)" fill="#4890a0" opacity="0.34"/>
    <circle id="Elipse_4282" data-name="Elipse 4282" cx="5.03" cy="5.03" r="5.03" transform="translate(3750.525 2532.132)" fill="#ef0a46"/>
    <circle id="Elipse_4283" data-name="Elipse 4283" cx="5.03" cy="5.03" r="5.03" transform="translate(3750.525 2539.268)" fill="#fce368"/>
    <path id="Trazado_105634" data-name="Trazado 105634" d="M3755.555,2539.268a2.074,2.074,0,1,0,3.544,1.462A5.011,5.011,0,0,0,3755.555,2539.268Z" fill="#f98869"/>
  </g>
</svg>
