<svg xmlns="http://www.w3.org/2000/svg" width="84" height="84" viewBox="0 0 84 84">
  <g id="Grupo_53992" data-name="Grupo 53992" transform="translate(-576 -1955)">
    <g id="Grupo_53993" data-name="Grupo 53993" transform="translate(220.559 415.906)">
      <path id="Trazado_101092" data-name="Trazado 101092" d="M439.441,1581.094a42,42,0,1,1-42-42A42,42,0,0,1,439.441,1581.094Z" fill="#ce83f5"/>
      <path id="Trazado_101093" data-name="Trazado 101093" d="M439.441,1581.094q0-1.059-.053-2.108l-19.963-19.963-49.508,46.626,15.779,15.779a42.029,42.029,0,0,0,53.745-40.334Z" fill="#ab5edd"/>
      <path id="Trazado_101094" data-name="Trazado 101094" d="M408.105,1547.7H375.456v56.109h43.969v-44.789Z" fill="#fff"/>
      <path id="Trazado_101095" data-name="Trazado 101095" d="M419.425,1559.023l-11.32-11.32H397.4v56.109h22.023Z" fill="#e9edf5"/>
      <path id="Trazado_101096" data-name="Trazado 101096" d="M408.105,1559.023h11.32l-11.32-11.32Z" fill="#a3d4ff"/>
      <path id="Trazado_101097" data-name="Trazado 101097" d="M390.932,1571.415l-4.183-6.4H369.917v40.633h55.048v-34.234Z" fill="#ffd400"/>
      <path id="Trazado_101098" data-name="Trazado 101098" d="M397.4,1571.415h27.563v34.234H397.4Z" fill="#fdba12"/>
      <g id="Grupo_53992-2" data-name="Grupo 53992">
        <path id="Trazado_101099" data-name="Trazado 101099" d="M389.12,1583.044v13.232h-4.062v-13.232Z" fill="#af7c09"/>
        <path id="Trazado_101100" data-name="Trazado 101100" d="M402.88,1583.044l-4.107,13.232h-4.14l-4.294-13.232h4.281l2.094,7.213c.144.426.27.847.38,1.26l2.446-8.473Z" fill="#af7c09"/>
        <path id="Trazado_101101" data-name="Trazado 101101" d="M410.7,1596.276l-.748-2.607H406.4l-.794,2.607h-3.3l4.086-13.232h4.293l4.152,13.232Zm-3.6-5.5h2.141l-1.07-3.838Z" fill="#af7c09"/>
      </g>
    </g>
  </g>
</svg>
