<svg xmlns="http://www.w3.org/2000/svg" width="107.472" height="107.472" viewBox="0 0 107.472 107.472">
  <g id="Grupo_56943" data-name="Grupo 56943" transform="translate(-956 -614.273)">
    <g id="Grupo_56170" data-name="Grupo 56170" transform="translate(-2049.476 266.337)">
      <circle id="Elipse_4081" data-name="Elipse 4081" cx="53.736" cy="53.736" r="53.736" transform="translate(3005.476 347.936)" fill="#ff9800"/>
    </g>
    <path id="Trazado_105309" data-name="Trazado 105309" d="M3062.955,455.264a53.733,53.733,0,0,0,49.738-48.4l-29.124-12.3-11.388,4.544-12.7,2.562-24.621,3.793Z" transform="translate(-2049.476 266.337)" fill="#ee6e00"/>
    <g id="Grupo_56317" data-name="Grupo 56317" transform="translate(-2049.476 266.337)">
      <path id="Trazado_105310" data-name="Trazado 105310" d="M3083.569,405.465h-48.714v-10.9h48.714Zm-32.034-24.547a6.757,6.757,0,0,1,2.157-5.212,7.881,7.881,0,0,1,5.567-1.99,8.048,8.048,0,0,1,5.568,1.966,7.3,7.3,0,0,1,.072,10.378,7.992,7.992,0,0,1-5.64,1.966,7.827,7.827,0,0,1-5.639-1.99A6.762,6.762,0,0,1,3051.535,380.918Zm0,38.479a6.757,6.757,0,0,1,2.157-5.212,7.877,7.877,0,0,1,5.567-1.991,8.054,8.054,0,0,1,5.568,1.967,7.3,7.3,0,0,1,.072,10.378,7.992,7.992,0,0,1-5.64,1.966,7.827,7.827,0,0,1-5.639-1.99A6.762,6.762,0,0,1,3051.535,419.4Z" fill="#fff"/>
    </g>
  </g>
</svg>
